<svg width="22" height="14" viewBox="0 0 22 14" fill="none" xmlns="http://www.w3.org/2000/svg">
<path fill-rule="evenodd" clip-rule="evenodd" d="M0.351021 6.46527C0.768497 4.58663 2.43476 3.25 4.35922 3.25H16.9751C18.8996 3.25 20.5658 4.58663 20.9833 6.46527L21.0339 6.69305C21.2984 7.88317 21.2984 9.11684 21.0339 10.307C20.5933 12.2898 18.6357 13.546 16.6495 13.1204L12.3958 12.2089C11.2563 11.9647 10.078 11.9647 8.93854 12.2089L4.68477 13.1204C2.69863 13.546 0.741039 12.2898 0.300405 10.307C0.0359329 9.11684 0.0359329 7.88316 0.300405 6.69304L0.351021 6.46527ZM9.66699 7.75C9.25278 7.75 8.91699 8.08579 8.91699 8.5C8.91699 8.91421 9.25278 9.25 9.66699 9.25H11.667C12.0812 9.25 12.417 8.91421 12.417 8.5C12.417 8.08579 12.0812 7.75 11.667 7.75H9.66699Z" fill="#0F553E"/>
<path d="M4.67098 0.972155C5.09685 0.511759 5.69554 0.25 6.3227 0.25H15.0111C15.6382 0.25 16.2369 0.51176 16.6628 0.972157L17.1102 1.45584C17.2126 1.56657 17.1259 1.75 16.9751 1.75H4.35922C4.20819 1.75 4.12137 1.56633 4.22393 1.45545L4.67098 0.972155Z" fill="#0F553E"/>
</svg>
