<svg width="81" height="81" viewBox="0 0 81 81" fill="none" xmlns="http://www.w3.org/2000/svg">
<path opacity="0.4" d="M9.66786 25.5C9.66786 17.676 16.0105 11.3334 23.8345 11.3334H60.5012C68.3252 11.3334 74.6679 17.676 74.6679 25.5V41.3919C74.6679 43.9667 74.4188 46.5347 73.9246 49.06L54.823 41.9651C46.6463 38.928 38.7717 47.083 42.0928 55.1485L45.3258 63H13.9377C8.16097 63 4.2969 57.0542 6.64305 51.7753C8.63738 47.2881 9.66786 42.4322 9.66786 37.5218V25.5Z" fill="#0F553E"/>
<path d="M45.3258 63L49.4434 72.9999H22.167C15.7068 72.9999 10.3913 68.0993 9.73511 61.8129C10.9371 62.5599 12.3671 63 13.9387 63H45.3258Z" fill="#0F553E"/>
<path d="M33.0001 10.5C33.0001 9.11929 31.8808 8 30.5001 8C29.1194 8 28.0001 9.11929 28.0001 10.5V17.1667C28.0001 18.5474 29.1194 19.6667 30.5001 19.6667C31.8808 19.6667 33.0001 18.5474 33.0001 17.1667V10.5Z" fill="#0F553E"/>
<path d="M56.3334 10.5C56.3334 9.11929 55.2141 8 53.8334 8C52.4527 8 51.3334 9.11929 51.3334 10.5V17.1667C51.3334 18.5474 52.4527 19.6667 53.8334 19.6667C55.2141 19.6667 56.3334 18.5474 56.3334 17.1667V10.5Z" fill="#0F553E"/>
<path d="M24.6667 30.5C24.6667 29.1193 25.786 28 27.1667 28H28.0001C29.3808 28 30.5001 29.1193 30.5001 30.5C30.5001 31.8807 29.3808 33 28.0001 33H27.1667C25.786 33 24.6667 31.8807 24.6667 30.5Z" fill="#0F553E"/>
<path d="M24.6667 43.8333C24.6667 42.4526 25.786 41.3333 27.1667 41.3333H28.0001C29.3808 41.3333 30.5001 42.4526 30.5001 43.8333C30.5001 45.214 29.3808 46.3333 28.0001 46.3333H27.1667C25.786 46.3333 24.6667 45.214 24.6667 43.8333Z" fill="#0F553E"/>
<path d="M38.0001 30.5C38.0001 29.1193 39.1194 28 40.5001 28H41.3334C42.7141 28 43.8334 29.1193 43.8334 30.5C43.8334 31.8807 42.7141 33 41.3334 33H40.5001C39.1194 33 38.0001 31.8807 38.0001 30.5Z" fill="#0F553E"/>
<path d="M38.0001 43.8333C38.0001 42.4526 39.1194 41.3333 40.5001 41.3333H41.3334C42.7141 41.3333 43.8334 42.4526 43.8334 43.8333C43.8334 45.214 42.7141 46.3333 41.3334 46.3333H40.5001C39.1194 46.3333 38.0001 45.214 38.0001 43.8333Z" fill="#0F553E"/>
<path d="M51.3334 30.5C51.3334 29.1193 52.4527 28 53.8334 28H54.6667C56.0475 28 57.1667 29.1193 57.1667 30.5C57.1667 31.8807 56.0475 33 54.6667 33H53.8334C52.4527 33 51.3334 31.8807 51.3334 30.5Z" fill="#0F553E"/>
<path d="M53.0823 46.6523C48.9934 45.1335 45.0557 49.2115 46.7164 53.2447L54.9797 73.3126C56.4939 76.99 61.8075 76.6591 62.8539 72.8224L65.1453 64.4204L73.2623 62.2067C77.1704 61.1409 77.4141 55.6898 73.6168 54.2794L53.0823 46.6523Z" fill="#0F553E"/>
<path opacity="0.4" fill-rule="evenodd" clip-rule="evenodd" d="M61.3381 60.6182C62.3135 59.641 63.8964 59.6396 64.8736 60.615L75.3625 71.0851C76.3397 72.0606 76.3411 73.6435 75.3657 74.6207C74.3902 75.5978 72.8073 75.5993 71.8301 74.6238L61.3412 64.1538C60.3641 63.1783 60.3626 61.5954 61.3381 60.6182Z" fill="#0F553E"/>
</svg>
