<svg width="22" height="20" viewBox="0 0 22 20" fill="none" xmlns="http://www.w3.org/2000/svg">
<path fill-rule="evenodd" clip-rule="evenodd" d="M4.5 0.75C2.15279 0.75 0.25 2.65279 0.25 5V15C0.25 17.3472 2.15279 19.25 4.5 19.25H12C14.3472 19.25 16.25 17.3472 16.25 15V5C16.25 2.65279 14.3472 0.75 12 0.75H4.5ZM12 4.25C11.5858 4.25 11.25 4.58579 11.25 5C11.25 5.41421 11.5858 5.75 12 5.75H12.01C12.4242 5.75 12.76 5.41421 12.76 5C12.76 4.58579 12.4242 4.25 12.01 4.25H12Z" fill="#0F553E"/>
<path d="M17.8471 14.388C17.7869 14.3519 17.75 14.2868 17.75 14.2165V5.78306C17.75 5.71281 17.7869 5.64771 17.8471 5.61157L18.6495 5.13012C20.0141 4.31138 21.7501 5.29431 21.7501 6.88566V13.1139C21.7501 14.7053 20.0141 15.6882 18.6495 14.8695L17.8471 14.388Z" fill="#0F553E"/>
</svg>
