<svg width="32" height="32" viewBox="0 0 32 32" fill="none" xmlns="http://www.w3.org/2000/svg">
<path fill-rule="evenodd" clip-rule="evenodd" d="M12.8083 3C12.0614 3 11.3362 3.25083 10.7489 3.71227L3.77411 9.19245L4.39193 9.97877L3.77411 9.19245C2.38982 10.2801 2.09 12.2567 3.08948 13.706L13.2572 28.4492C14.5822 30.3704 17.4204 30.3704 18.7453 28.4492L28.9131 13.706C29.9125 12.2567 29.6127 10.2801 28.2284 9.19245L21.2537 3.71227C20.6664 3.25083 19.9411 3 19.1943 3H12.8083ZM11.9845 5.28491C12.2194 5.10033 12.5095 5 12.8083 5H19.1943C19.493 5 19.7831 5.10033 20.018 5.28491L26.8911 10.6852L16.0001 12.9781L5.11089 10.6856L11.9845 5.28491ZM4.80047 12.6641L14.9037 27.3137C14.9339 27.3576 14.9661 27.3989 15.0001 27.4378V14.8114L4.80047 12.6641ZM17.0001 27.4405C17.0349 27.4009 17.0679 27.3586 17.0989 27.3137L27.2025 12.6635L17.0001 14.8114V27.4405Z" fill="#D27A08"/>
</svg>
