<svg width="81" height="81" viewBox="0 0 81 81" fill="none" xmlns="http://www.w3.org/2000/svg">
<path opacity="0.4" d="M8 57.1667C8 64.9907 14.3426 71.3334 22.1667 71.3334L58.8333 71.3334C66.6574 71.3334 73 64.9907 73 57.1667V43C73 35.176 66.6574 28.8334 58.8333 28.8334L22.1667 28.8334C14.3426 28.8334 8 35.176 8 43L8 57.1667Z" fill="#0F553E"/>
<path fill-rule="evenodd" clip-rule="evenodd" d="M28.8942 37.7505C29.9524 36.8636 31.5292 37.0025 32.4161 38.0607L39.7806 46.8475C40.1371 47.2729 40.8608 47.2729 41.2174 46.8475L48.5843 38.0604C49.4713 37.0023 51.0482 36.8637 52.1062 37.7508C53.1643 38.6378 53.3029 40.2147 52.4159 41.2727L45.0494 50.0592C42.6945 52.869 38.3035 52.869 35.9485 50.0592L28.584 41.2724C27.6971 40.2142 27.836 38.6374 28.8942 37.7505Z" fill="#0F553E"/>
<path fill-rule="evenodd" clip-rule="evenodd" d="M40.5 52.1667C39.1193 52.1667 38 51.0474 38 49.6667L38 11.3334C38 9.95266 39.1193 8.83337 40.5 8.83337C41.8807 8.83337 43 9.95266 43 11.3334L43 49.6667C43 51.0474 41.8807 52.1667 40.5 52.1667Z" fill="#0F553E"/>
</svg>
