<svg width="81" height="81" viewBox="0 0 81 81" fill="none" xmlns="http://www.w3.org/2000/svg">
<path fill-rule="evenodd" clip-rule="evenodd" d="M57.3144 8.55672C54.4788 5.90566 50.2808 5.32814 46.8346 7.11503L8.71423 26.8812C6.22755 28.1706 4.66663 30.7382 4.66663 33.5393C4.66663 39.2143 10.7256 42.8333 15.7223 40.1428L47.6311 22.9611C49.1561 22.14 51.0301 22.3479 52.3381 23.4833L65.0018 34.4771C69.4329 38.3239 76.3333 35.1765 76.3333 29.3085C76.3333 27.4134 75.5475 25.603 74.1631 24.3088L57.3144 8.55672Z" fill="#0F553E"/>
<path fill-rule="evenodd" clip-rule="evenodd" d="M50.5 74.6666V62.1666C50.5 56.6438 46.0228 52.1666 40.5 52.1666C34.9772 52.1666 30.5 56.6438 30.5 62.1666V74.6666H50.5Z" fill="#0F553E"/>
<path opacity="0.4" fill-rule="evenodd" clip-rule="evenodd" d="M11.3334 41.0015C12.7719 41.1664 14.2908 40.9135 15.7224 40.1426L47.6312 22.961C49.1562 22.1398 51.0302 22.3477 52.3381 23.4832L65.0019 34.477C66.408 35.6976 68.0627 36.214 69.6667 36.1627V60.4998C69.6667 68.3239 63.3241 74.6665 55.5 74.6665H25.5C17.676 74.6665 11.3334 68.3239 11.3334 60.4998V41.0015Z" fill="#0F553E"/>
</svg>
