<svg width="20" height="20" viewBox="0 0 20 20" fill="none" xmlns="http://www.w3.org/2000/svg">
<path d="M14.0555 5.75085C14.469 5.72603 14.784 5.37073 14.7592 4.95726C14.7344 4.54379 14.3791 4.22873 13.9656 4.25354L13.9545 4.25421C13.541 4.27903 13.2259 4.63433 13.2507 5.0478C13.2756 5.46127 13.6309 5.77634 14.0443 5.75152L14.0555 5.75085Z" fill="#0F553E"/>
<path fill-rule="evenodd" clip-rule="evenodd" d="M4.5 0.25C2.15279 0.25 0.25 2.15279 0.25 4.5V15.5C0.25 17.8472 2.15279 19.75 4.5 19.75H15.5C17.8472 19.75 19.75 17.8472 19.75 15.5V4.5C19.75 2.15279 17.8472 0.25 15.5 0.25H4.5ZM1.75 4.5C1.75 2.98122 2.98122 1.75 4.5 1.75H15.5C17.0188 1.75 18.25 2.98122 18.25 4.5V12.6894L17.2551 11.6944C16.0531 10.4925 14.2472 10.2818 12.8332 11.0388C12.7198 11.0995 12.7025 11.2516 12.7934 11.3426L14.3518 12.9009C14.547 13.0962 14.547 13.4127 14.3518 13.608C14.1565 13.8033 13.8399 13.8033 13.6447 13.608L8.8435 8.8068C7.11554 7.36136 4.52147 7.51147 2.97591 9.2116L1.75 10.5601V4.5Z" fill="#0F553E"/>
</svg>
