<svg width="81" height="81" viewBox="0 0 81 81" fill="none" xmlns="http://www.w3.org/2000/svg">
<path opacity="0.4" fill-rule="evenodd" clip-rule="evenodd" d="M34.2999 11.8784C43.9157 2.26269 59.5059 2.26269 69.1216 11.8784C78.7374 21.4942 78.7374 37.0844 69.1216 46.7001L42.7581 73.0636C38.3985 77.4232 31.3302 77.4232 26.9707 73.0636L7.93644 54.0294C3.57685 49.6698 3.57685 42.6015 7.93643 38.2419L34.2999 11.8784ZM51.6152 29.3828C53.8932 31.6609 57.5867 31.6609 59.8647 29.3828C62.1428 27.1047 62.1428 23.4113 59.8647 21.1332C57.5867 18.8552 53.8932 18.8552 51.6152 21.1332C49.3371 23.4113 49.3371 27.1047 51.6152 29.3828Z" fill="#0F553E"/>
<path fill-rule="evenodd" clip-rule="evenodd" d="M58.0968 22.901C56.7951 21.5992 54.6846 21.5992 53.3828 22.901C52.0811 24.2027 52.0811 26.3133 53.3828 27.615C54.6846 28.9168 56.7951 28.9168 58.0968 27.615C59.3986 26.3133 59.3986 24.2027 58.0968 22.901ZM49.8473 19.3655C53.1016 16.1111 58.378 16.1111 61.6324 19.3655C64.8867 22.6198 64.8867 27.8962 61.6324 31.1506C58.378 34.4049 53.1016 34.4049 49.8473 31.1506C46.5929 27.8962 46.5929 22.6198 49.8473 19.3655Z" fill="#0F553E"/>
<path fill-rule="evenodd" clip-rule="evenodd" d="M32.2726 39.1135C33.2169 37.2715 35.1563 35.3101 38.4121 35.3101C41.0811 35.3101 42.9728 36.7865 44.1428 38.2777C45.2913 39.7414 45.9399 41.4385 46.2103 42.6101C46.5208 43.9555 45.6818 45.2978 44.3365 45.6083C42.9911 45.9187 41.6488 45.0798 41.3384 43.7344C41.1963 43.1187 40.8137 42.1346 40.2091 41.3641C39.6261 40.621 39.043 40.3101 38.4121 40.3101C37.8903 40.3101 37.5795 40.4495 37.3679 40.5995C37.1296 40.7685 36.907 41.0335 36.7219 41.3946C36.5565 41.7173 36.5142 42.3546 36.9368 43.6276C36.9555 43.6742 36.9729 43.7217 36.989 43.7699L37.9444 46.636C38.4334 48.103 39.0253 50.4898 37.8695 52.7441C36.9252 54.5861 34.9858 56.5475 31.73 56.5475C29.061 56.5475 27.1692 55.0711 25.9993 53.5799C24.8508 52.1162 24.2022 50.4191 23.9318 49.2474C23.6213 47.9021 24.4602 46.5598 25.8056 46.2493C27.1509 45.9388 28.4933 46.7778 28.8037 48.1231C28.9458 48.7389 29.3284 49.7229 29.9329 50.4935C30.516 51.2366 31.0991 51.5475 31.73 51.5475C32.2518 51.5475 32.5626 51.4081 32.7742 51.258C33.0125 51.0891 33.235 50.8241 33.4202 50.463C33.5856 50.1403 33.6279 49.5029 33.2052 48.23C33.1866 48.1834 33.1691 48.1359 33.153 48.0877L32.1977 45.2216C31.7087 43.7546 31.1168 41.3678 32.2726 39.1135Z" fill="#0F553E"/>
<path fill-rule="evenodd" clip-rule="evenodd" d="M47.0986 37.8985C47.8645 39.0474 47.5541 40.5995 46.4052 41.3654L44.4253 42.6854C43.2765 43.4512 41.7244 43.1408 40.9585 41.992C40.1926 40.8432 40.503 39.291 41.6518 38.5251L43.6317 37.2052C44.7805 36.4393 46.3327 36.7497 47.0986 37.8985ZM29.2795 49.778C30.0454 50.9268 29.735 52.4789 28.5862 53.2448L26.6063 54.5648C25.4574 55.3306 23.9053 55.0202 23.1394 53.8714C22.3735 52.7226 22.6839 51.1704 23.8328 50.4045L25.8127 49.0846C26.9615 48.3187 28.5136 48.6291 29.2795 49.778Z" fill="#0F553E"/>
</svg>
